# xmcd CD database file
#
# Track frame offsets:
#	187
#	38140
#	71162
#	112417
#	137145
#	161480
#	199752
#	224142
#	253735
#
# Disc length: 3811 seconds
#
# Revision: 0
# Processed by: cddbd v1.5.2PL0 Copyright (c) Steve Scherf et al.
# Submitted via: CDex 1.51
#
DISCID=950ee109
DTITLE=Bob Rockwell Quartet - No Rush
DYEAR=1986
DGENRE=Jazz
TTITLE0=Twice
TTITLE1=Christmas Blues
TTITLE2=Roberta Is Back
TTITLE3=Hymn For Her
TTITLE4=Ten's
TTITLE5=Embraceable You
TTITLE6=No Rush
TTITLE7=Though I Walk Through The Valley
TTITLE8=Just In Time
EXTD=YEAR: 1986
EXTT0=
EXTT1=
EXTT2=
EXTT3=
EXTT4=
EXTT5=
EXTT6=
EXTT7=
EXTT8=
PLAYORDER=
